M48
;GenerationSoftware,Autodesk,EAGLE,9.6.2*%
;CreationDate,2021-05-05T20:40:37Z*%
FMAT,2
ICI,OFF
METRIC,TZ,000.000
T12C0.350
T11C0.700
T10C0.760
T9C0.800
T8C0.813
T7C0.850
T6C1.016
T5C1.100
T4C1.340
T3C1.370
T2C1.600
T1C2.800
%
G90
M71
T1
X36830Y80010
X140970Y85090
X139700Y3810
X29210Y-5080
T2
X8890Y41910
X8890Y8890
X8890Y1270
X8890Y-6350
X135890Y36830
X77470Y91440
X85090Y91440
X118110Y91440
X8890Y33020
X8890Y25400
X8890Y17780
X60960Y91440
X53340Y91440
X45720Y91440
X133350Y91440
X135890Y12700
X135890Y20320
X135890Y27940
X125730Y91440
X135890Y68580
X135890Y44450
X135890Y52070
X135890Y60960
X135890Y76200
X8890Y81280
X8890Y73660
X8890Y66040
X8890Y57150
X8890Y49530
X69850Y91440
X109220Y91440
X101600Y91440
X93980Y91440
X68580Y-2540
X76200Y-2540
X83820Y-2540
X44450Y-2540
X52070Y-2540
X59690Y-2540
X92710Y-2540
X100330Y-2540
X107950Y-2540
X116840Y-2540
X124460Y-2540
X132080Y-2540
T3
X34290Y92705
X34290Y95240
X34290Y90170
T4
X38100Y26670
X38100Y44450
X38100Y8890
X38100Y62230
T5
X128270Y40640
X128270Y58420
X128270Y71120
X128270Y68580
X128270Y66040
X128270Y63500
X128270Y60960
X128270Y55880
X128270Y53340
X128270Y78740
X128270Y50800
X128270Y48260
X128270Y45720
X128270Y43180
X128270Y73660
X128270Y76200
T6
X67869Y75921
X74371Y75921
X67869Y71399
X74371Y71399
T7
X27940Y83090
X27940Y97790
T8
X50800Y29210
X53340Y26670
X50800Y24130
X50800Y46990
X50800Y41910
X50800Y11430
X50800Y6350
X50800Y64770
X53340Y62230
X50800Y59690
X53340Y44450
X53340Y8890
T9
X36100Y56230
X36100Y68230
X23900Y56230
X23900Y68230
X36100Y2890
X36100Y14890
X23900Y2890
X23900Y14890
X36100Y38450
X36100Y50450
X23900Y38450
X23900Y50450
X36100Y20670
X36100Y32670
X23900Y20670
X23900Y32670
X9070Y93980
X14870Y93980
X11870Y89180
T10
X102998Y45720
X102998Y43180
X102998Y40640
X102998Y38100
X102998Y35560
X102998Y33020
X102998Y30480
X102998Y27940
X102998Y25400
X102998Y50800
X87502Y25400
X87502Y27940
X87502Y30480
X87502Y33020
X102998Y63500
X87502Y35560
X87502Y38100
X87502Y40640
X87502Y45720
X87502Y48260
X87502Y50800
X87502Y53340
X87502Y55880
X87502Y58420
X87502Y60960
X87502Y63500
X87502Y66040
X87502Y68580
X87502Y73660
X102998Y73660
X102998Y71120
X102998Y68580
X102998Y66040
X87502Y43180
X102998Y60960
X102998Y58420
X102998Y55880
X102998Y53340
X87502Y71120
X102998Y48260
T11
X78740Y5760
X76200Y5760
X73660Y5760
X71120Y5760
X68580Y5760
X68580Y14560
X71120Y14560
X86360Y14560
X73660Y14560
X78740Y14560
X81280Y14560
X83820Y14560
X109220Y5760
X106680Y5760
X104140Y5760
X101600Y5760
X99060Y5760
X96520Y5760
X93980Y5760
X91440Y5760
X91440Y14560
X93980Y14560
X96520Y14560
X99060Y14560
X101600Y14560
X104140Y14560
X106680Y14560
X109220Y14560
X76200Y14560
X83820Y5760
X81280Y5760
X86360Y5760
T12
X95250Y12700
X93980Y27940
X64770Y20320
X62230Y20320
X95250Y10160
M30