G04 EAGLE Gerber RS-274X export*
G75*
%MOMM*%
%FSLAX34Y34*%
%LPD*%
%INTop Copper*%
%IPPOS*%
%AMOC8*
5,1,8,0,0,1.08239X$1,22.5*%
G01*
%ADD10C,0.504000*%
%ADD11R,1.358000X1.358000*%
%ADD12C,1.358000*%
%ADD13R,1.268000X1.268000*%
%ADD14C,1.268000*%
%ADD15R,2.055000X2.055000*%
%ADD16C,2.055000*%
%ADD17R,1.208000X1.208000*%
%ADD18C,1.208000*%
%ADD19C,1.800000*%
%ADD20C,2.010000*%
%ADD21C,1.308000*%
%ADD22R,1.200000X1.200000*%
%ADD23P,1.429621X8X22.500000*%
%ADD24C,0.443700*%
%ADD25R,1.092200X2.006600*%
%ADD26C,1.879600*%
%ADD27R,2.400000X2.400000*%
%ADD28C,2.400000*%
%ADD29R,2.400000X1.700000*%
%ADD30C,1.650000*%
%ADD31C,0.609600*%
%ADD32C,0.406400*%
%ADD33C,0.812800*%
%ADD34C,1.270000*%
%ADD35C,1.016000*%
%ADD36C,0.756400*%


D10*
X389320Y903270D02*
X389320Y908730D01*
X398080Y908730D01*
X398080Y903270D01*
X389320Y903270D01*
X389320Y908058D02*
X398080Y908058D01*
X398080Y920070D02*
X398080Y925530D01*
X398080Y920070D02*
X389320Y920070D01*
X389320Y925530D01*
X398080Y925530D01*
X398080Y924858D02*
X389320Y924858D01*
X414720Y400730D02*
X414720Y395270D01*
X414720Y400730D02*
X423480Y400730D01*
X423480Y395270D01*
X414720Y395270D01*
X414720Y400058D02*
X423480Y400058D01*
X423480Y412070D02*
X423480Y417530D01*
X423480Y412070D02*
X414720Y412070D01*
X414720Y417530D01*
X423480Y417530D01*
X423480Y416858D02*
X414720Y416858D01*
X1224870Y402020D02*
X1230330Y402020D01*
X1224870Y402020D02*
X1224870Y410780D01*
X1230330Y410780D01*
X1230330Y402020D01*
X1230330Y406808D02*
X1224870Y406808D01*
X1213530Y410780D02*
X1208070Y410780D01*
X1213530Y410780D02*
X1213530Y402020D01*
X1208070Y402020D01*
X1208070Y410780D01*
X1208070Y406808D02*
X1213530Y406808D01*
X1224870Y452820D02*
X1230330Y452820D01*
X1224870Y452820D02*
X1224870Y461580D01*
X1230330Y461580D01*
X1230330Y452820D01*
X1230330Y457608D02*
X1224870Y457608D01*
X1213530Y461580D02*
X1208070Y461580D01*
X1213530Y461580D02*
X1213530Y452820D01*
X1208070Y452820D01*
X1208070Y461580D01*
X1208070Y457608D02*
X1213530Y457608D01*
X414720Y222930D02*
X414720Y217470D01*
X414720Y222930D02*
X423480Y222930D01*
X423480Y217470D01*
X414720Y217470D01*
X414720Y222258D02*
X423480Y222258D01*
X423480Y234270D02*
X423480Y239730D01*
X423480Y234270D02*
X414720Y234270D01*
X414720Y239730D01*
X423480Y239730D01*
X423480Y239058D02*
X414720Y239058D01*
X1113220Y45130D02*
X1113220Y39670D01*
X1113220Y45130D02*
X1121980Y45130D01*
X1121980Y39670D01*
X1113220Y39670D01*
X1113220Y44458D02*
X1121980Y44458D01*
X1121980Y56470D02*
X1121980Y61930D01*
X1121980Y56470D02*
X1113220Y56470D01*
X1113220Y61930D01*
X1121980Y61930D01*
X1121980Y61258D02*
X1113220Y61258D01*
X893380Y61930D02*
X893380Y56470D01*
X884620Y56470D01*
X884620Y61930D01*
X893380Y61930D01*
X893380Y61258D02*
X884620Y61258D01*
X884620Y45130D02*
X884620Y39670D01*
X884620Y45130D02*
X893380Y45130D01*
X893380Y39670D01*
X884620Y39670D01*
X884620Y44458D02*
X893380Y44458D01*
X690180Y183470D02*
X690180Y188930D01*
X690180Y183470D02*
X681420Y183470D01*
X681420Y188930D01*
X690180Y188930D01*
X690180Y188258D02*
X681420Y188258D01*
X681420Y172130D02*
X681420Y166670D01*
X681420Y172130D02*
X690180Y172130D01*
X690180Y166670D01*
X681420Y166670D01*
X681420Y171458D02*
X690180Y171458D01*
X918780Y183470D02*
X918780Y188930D01*
X918780Y183470D02*
X910020Y183470D01*
X910020Y188930D01*
X918780Y188930D01*
X918780Y188258D02*
X910020Y188258D01*
X910020Y172130D02*
X910020Y166670D01*
X910020Y172130D02*
X918780Y172130D01*
X918780Y166670D01*
X910020Y166670D01*
X910020Y171458D02*
X918780Y171458D01*
X1227520Y763570D02*
X1227520Y769030D01*
X1236280Y769030D01*
X1236280Y763570D01*
X1227520Y763570D01*
X1227520Y768358D02*
X1236280Y768358D01*
X1236280Y780370D02*
X1236280Y785830D01*
X1236280Y780370D02*
X1227520Y780370D01*
X1227520Y785830D01*
X1236280Y785830D01*
X1236280Y785158D02*
X1227520Y785158D01*
X398080Y958170D02*
X398080Y963630D01*
X398080Y958170D02*
X389320Y958170D01*
X389320Y963630D01*
X398080Y963630D01*
X398080Y962958D02*
X389320Y962958D01*
X389320Y946830D02*
X389320Y941370D01*
X389320Y946830D02*
X398080Y946830D01*
X398080Y941370D01*
X389320Y941370D01*
X389320Y946158D02*
X398080Y946158D01*
X763570Y398080D02*
X769030Y398080D01*
X769030Y389320D01*
X763570Y389320D01*
X763570Y398080D01*
X763570Y394108D02*
X769030Y394108D01*
X780370Y389320D02*
X785830Y389320D01*
X780370Y389320D02*
X780370Y398080D01*
X785830Y398080D01*
X785830Y389320D01*
X785830Y394108D02*
X780370Y394108D01*
X769030Y448880D02*
X763570Y448880D01*
X769030Y448880D02*
X769030Y440120D01*
X763570Y440120D01*
X763570Y448880D01*
X763570Y444908D02*
X769030Y444908D01*
X780370Y440120D02*
X785830Y440120D01*
X780370Y440120D02*
X780370Y448880D01*
X785830Y448880D01*
X785830Y440120D01*
X785830Y444908D02*
X780370Y444908D01*
X804480Y780370D02*
X804480Y785830D01*
X804480Y780370D02*
X795720Y780370D01*
X795720Y785830D01*
X804480Y785830D01*
X804480Y785158D02*
X795720Y785158D01*
X795720Y769030D02*
X795720Y763570D01*
X795720Y769030D02*
X804480Y769030D01*
X804480Y763570D01*
X795720Y763570D01*
X795720Y768358D02*
X804480Y768358D01*
X1071180Y531830D02*
X1071180Y526370D01*
X1062420Y526370D01*
X1062420Y531830D01*
X1071180Y531830D01*
X1071180Y531158D02*
X1062420Y531158D01*
X1062420Y515030D02*
X1062420Y509570D01*
X1062420Y515030D02*
X1071180Y515030D01*
X1071180Y509570D01*
X1062420Y509570D01*
X1062420Y514358D02*
X1071180Y514358D01*
X842580Y481030D02*
X842580Y475570D01*
X833820Y475570D01*
X833820Y481030D01*
X842580Y481030D01*
X842580Y480358D02*
X833820Y480358D01*
X833820Y464230D02*
X833820Y458770D01*
X833820Y464230D02*
X842580Y464230D01*
X842580Y458770D01*
X833820Y458770D01*
X833820Y463558D02*
X842580Y463558D01*
X414720Y573070D02*
X414720Y578530D01*
X423480Y578530D01*
X423480Y573070D01*
X414720Y573070D01*
X414720Y577858D02*
X423480Y577858D01*
X423480Y589870D02*
X423480Y595330D01*
X423480Y589870D02*
X414720Y589870D01*
X414720Y595330D01*
X423480Y595330D01*
X423480Y594658D02*
X414720Y594658D01*
X414720Y45130D02*
X414720Y39670D01*
X414720Y45130D02*
X423480Y45130D01*
X423480Y39670D01*
X414720Y39670D01*
X414720Y44458D02*
X423480Y44458D01*
X423480Y56470D02*
X423480Y61930D01*
X423480Y56470D02*
X414720Y56470D01*
X414720Y61930D01*
X423480Y61930D01*
X423480Y61258D02*
X414720Y61258D01*
D11*
X279400Y977900D03*
D12*
X279400Y830900D03*
D13*
X875020Y736600D03*
D14*
X875020Y711200D03*
X875020Y685800D03*
X875020Y660400D03*
X875020Y635000D03*
X875020Y609600D03*
X875020Y584200D03*
X875020Y558800D03*
X875020Y533400D03*
X875020Y508000D03*
X875020Y482600D03*
X875020Y457200D03*
X875020Y431800D03*
X875020Y406400D03*
X875020Y381000D03*
X875020Y355600D03*
X875020Y330200D03*
X875020Y304800D03*
X875020Y279400D03*
X875020Y254000D03*
X1029980Y254000D03*
X1029980Y279400D03*
X1029980Y304800D03*
X1029980Y330200D03*
X1029980Y355600D03*
X1029980Y381000D03*
X1029980Y406400D03*
X1029980Y431800D03*
X1029980Y457200D03*
X1029980Y482600D03*
X1029980Y508000D03*
X1029980Y533400D03*
X1029980Y558800D03*
X1029980Y584200D03*
X1029980Y609600D03*
X1029980Y635000D03*
X1029980Y660400D03*
X1029980Y685800D03*
X1029980Y711200D03*
X1029980Y736600D03*
D15*
X342900Y901700D03*
D16*
X342900Y927050D03*
X342900Y952400D03*
D17*
X1092200Y145600D03*
D18*
X1066800Y145600D03*
X1041400Y145600D03*
X1016000Y145600D03*
X990600Y145600D03*
X965200Y145600D03*
X939800Y145600D03*
X914400Y145600D03*
X914400Y57600D03*
X939800Y57600D03*
X965200Y57600D03*
X990600Y57600D03*
X1016000Y57600D03*
X1041400Y57600D03*
X1066800Y57600D03*
X1092200Y57600D03*
D17*
X863600Y145600D03*
D18*
X838200Y145600D03*
X812800Y145600D03*
X787400Y145600D03*
X762000Y145600D03*
X736600Y145600D03*
X711200Y145600D03*
X685800Y145600D03*
X685800Y57600D03*
X711200Y57600D03*
X736600Y57600D03*
X762000Y57600D03*
X787400Y57600D03*
X812800Y57600D03*
X838200Y57600D03*
X863600Y57600D03*
D19*
X90700Y930800D02*
X90700Y948800D01*
X148700Y948800D02*
X148700Y930800D01*
X127700Y891800D02*
X109700Y891800D01*
D20*
X381000Y622300D03*
D21*
X361000Y562300D03*
X361000Y682300D03*
X239000Y562300D03*
X239000Y682300D03*
D20*
X381000Y88900D03*
D21*
X361000Y28900D03*
X361000Y148900D03*
X239000Y28900D03*
X239000Y148900D03*
D20*
X381000Y444500D03*
D21*
X361000Y384500D03*
X361000Y504500D03*
X239000Y384500D03*
X239000Y504500D03*
D20*
X381000Y266700D03*
D21*
X361000Y206700D03*
X361000Y326700D03*
X239000Y206700D03*
X239000Y326700D03*
D22*
X421300Y647700D03*
X442300Y647700D03*
X421300Y114300D03*
X442300Y114300D03*
X421300Y292100D03*
X442300Y292100D03*
X421300Y469900D03*
X442300Y469900D03*
D23*
X508000Y596900D03*
X533400Y622300D03*
X508000Y647700D03*
X508000Y63500D03*
X533400Y88900D03*
X508000Y114300D03*
X508000Y419100D03*
X533400Y444500D03*
X508000Y469900D03*
X508000Y241300D03*
X533400Y266700D03*
X508000Y292100D03*
D24*
X795218Y699318D02*
X795218Y703582D01*
X804982Y703582D01*
X804982Y699318D01*
X795218Y699318D01*
X795218Y703533D02*
X804982Y703533D01*
X804982Y718818D02*
X804982Y723082D01*
X804982Y718818D02*
X795218Y718818D01*
X795218Y723082D01*
X804982Y723082D01*
X804982Y723033D02*
X795218Y723033D01*
X449382Y596082D02*
X449382Y591818D01*
X439618Y591818D01*
X439618Y596082D01*
X449382Y596082D01*
X449382Y596033D02*
X439618Y596033D01*
X439618Y576582D02*
X439618Y572318D01*
X439618Y576582D02*
X449382Y576582D01*
X449382Y572318D01*
X439618Y572318D01*
X439618Y576533D02*
X449382Y576533D01*
X449382Y62682D02*
X449382Y58418D01*
X439618Y58418D01*
X439618Y62682D01*
X449382Y62682D01*
X449382Y62633D02*
X439618Y62633D01*
X439618Y43182D02*
X439618Y38918D01*
X439618Y43182D02*
X449382Y43182D01*
X449382Y38918D01*
X439618Y38918D01*
X439618Y43133D02*
X449382Y43133D01*
X449382Y236218D02*
X449382Y240482D01*
X449382Y236218D02*
X439618Y236218D01*
X439618Y240482D01*
X449382Y240482D01*
X449382Y240433D02*
X439618Y240433D01*
X439618Y220982D02*
X439618Y216718D01*
X439618Y220982D02*
X449382Y220982D01*
X449382Y216718D01*
X439618Y216718D01*
X439618Y220933D02*
X449382Y220933D01*
X449382Y414018D02*
X449382Y418282D01*
X449382Y414018D02*
X439618Y414018D01*
X439618Y418282D01*
X449382Y418282D01*
X449382Y418233D02*
X439618Y418233D01*
X439618Y398782D02*
X439618Y394518D01*
X439618Y398782D02*
X449382Y398782D01*
X449382Y394518D01*
X439618Y394518D01*
X439618Y398733D02*
X449382Y398733D01*
D25*
X203200Y882142D03*
X203200Y972058D03*
D26*
X743712Y713994D03*
X678688Y713994D03*
X743712Y759206D03*
X678688Y759206D03*
D27*
X1320800Y-25400D03*
D28*
X1244600Y-25400D03*
X1168400Y-25400D03*
D27*
X1079500Y-25400D03*
D28*
X1003300Y-25400D03*
X927100Y-25400D03*
D27*
X596900Y-25400D03*
D28*
X520700Y-25400D03*
X444500Y-25400D03*
D27*
X838200Y-25400D03*
D28*
X762000Y-25400D03*
X685800Y-25400D03*
D27*
X939800Y914400D03*
D28*
X1016000Y914400D03*
X1092200Y914400D03*
D27*
X698500Y914400D03*
D28*
X774700Y914400D03*
X850900Y914400D03*
D27*
X1181100Y914400D03*
D28*
X1257300Y914400D03*
X1333500Y914400D03*
D27*
X457200Y914400D03*
D28*
X533400Y914400D03*
X609600Y914400D03*
D27*
X88900Y177800D03*
D28*
X88900Y254000D03*
X88900Y330200D03*
D27*
X88900Y-63500D03*
D28*
X88900Y12700D03*
X88900Y88900D03*
D27*
X88900Y419100D03*
D28*
X88900Y495300D03*
X88900Y571500D03*
D27*
X88900Y660400D03*
D28*
X88900Y736600D03*
X88900Y812800D03*
D29*
X825500Y400600D03*
X825500Y437600D03*
D27*
X1358900Y762000D03*
D28*
X1358900Y685800D03*
X1358900Y609600D03*
D27*
X1358900Y520700D03*
D28*
X1358900Y444500D03*
X1358900Y368300D03*
D27*
X1358900Y279400D03*
D28*
X1358900Y203200D03*
X1358900Y127000D03*
D30*
X1282700Y406400D03*
X1282700Y431800D03*
X1282700Y457200D03*
X1282700Y482600D03*
X1282700Y508000D03*
X1282700Y533400D03*
X1282700Y558800D03*
X1282700Y584200D03*
X1282700Y609600D03*
X1282700Y635000D03*
X1282700Y660400D03*
X1282700Y685800D03*
X1282700Y711200D03*
X1282700Y736600D03*
X1282700Y762000D03*
X1282700Y787400D03*
D31*
X292100Y977900D02*
X279400Y977900D01*
X292100Y977900D02*
X317500Y952500D01*
X317500Y914400D01*
X330200Y901700D01*
X342900Y901700D01*
X389400Y901700D02*
X393700Y906000D01*
X389400Y901700D02*
X342900Y901700D01*
X1029980Y584200D02*
X1168400Y584200D01*
X1219200Y533400D01*
X1282700Y533400D01*
D32*
X444500Y289900D02*
X442300Y292100D01*
X444500Y289900D02*
X444500Y238350D01*
D31*
X1210800Y406400D02*
X1210800Y444500D01*
X1210800Y457200D01*
X1062500Y508000D02*
X1029980Y508000D01*
X1062500Y508000D02*
X1066800Y512300D01*
X1155700Y512300D02*
X1210800Y457200D01*
X1155700Y512300D02*
X1066800Y512300D01*
X1221350Y433950D02*
X1223500Y431800D01*
X1221350Y433950D02*
X1210800Y444500D01*
X766300Y444500D02*
X766300Y393700D01*
X838200Y461500D02*
X846600Y461500D01*
X850900Y457200D01*
X875020Y457200D01*
X800100Y783100D02*
X767606Y783100D01*
X743712Y759206D01*
X393700Y922800D02*
X393700Y944100D01*
X389450Y927050D02*
X393700Y922800D01*
X389450Y927050D02*
X342900Y927050D01*
D33*
X1231900Y939800D02*
X1257300Y914400D01*
X1231900Y939800D02*
X1041400Y939800D01*
X1257300Y914400D02*
X1265300Y906400D01*
D32*
X419100Y112100D02*
X419100Y59200D01*
X419100Y112100D02*
X421300Y114300D01*
X419100Y237000D02*
X419100Y289900D01*
X421300Y292100D01*
X419100Y414800D02*
X419100Y467700D01*
X421300Y469900D01*
X421300Y493100D01*
X409900Y504500D02*
X361000Y504500D01*
X409900Y504500D02*
X421300Y493100D01*
X421300Y647700D02*
X420200Y648800D01*
X419100Y649900D01*
X419100Y673100D01*
X409900Y682300D01*
X361000Y682300D01*
X419100Y294300D02*
X421300Y292100D01*
X419100Y317500D02*
X409900Y326700D01*
X361000Y326700D01*
X419100Y317500D02*
X419100Y294300D01*
X419100Y116500D02*
X421300Y114300D01*
X419100Y116500D02*
X419100Y139700D01*
X409900Y148900D01*
X361000Y148900D01*
X419100Y592600D02*
X419100Y647700D01*
X420200Y648800D01*
D34*
X90700Y814600D02*
X90700Y939800D01*
X63500Y114300D02*
X88900Y88900D01*
X63500Y304800D02*
X88900Y330200D01*
X63500Y304800D02*
X63500Y114300D01*
X88900Y330200D02*
X63500Y355600D01*
X63500Y546100D02*
X88900Y571500D01*
X63500Y546100D02*
X63500Y355600D01*
X88900Y571500D02*
X63500Y596900D01*
X63500Y787400D02*
X88900Y812800D01*
X63500Y787400D02*
X63500Y596900D01*
X762000Y57600D02*
X787400Y57600D01*
X990600Y57600D02*
X1016000Y57600D01*
X787400Y145600D02*
X762000Y145600D01*
X990600Y145600D02*
X1016000Y145600D01*
X1016000Y57600D01*
X787400Y57600D02*
X787400Y145600D01*
X762000Y145600D02*
X762000Y177800D01*
X749300Y190500D01*
X990600Y177800D02*
X990600Y145600D01*
X990600Y177800D02*
X977900Y190500D01*
X918700Y190500D01*
X914400Y186200D01*
X749300Y190500D02*
X690100Y190500D01*
X685800Y186200D01*
X910100Y190500D02*
X914400Y186200D01*
X910100Y190500D02*
X863600Y190500D01*
X749300Y190500D01*
D31*
X990600Y508000D02*
X1029980Y508000D01*
X939800Y457200D02*
X875020Y457200D01*
X939800Y457200D02*
X990600Y508000D01*
X838200Y461500D02*
X779000Y461500D01*
X766300Y448800D02*
X766300Y444500D01*
X766300Y448800D02*
X779000Y461500D01*
X800100Y783100D02*
X800100Y889000D01*
X1231900Y783100D02*
X1278400Y783100D01*
D33*
X410700Y922800D02*
X393700Y922800D01*
X410700Y922800D02*
X444500Y889000D01*
X508000Y889000D01*
D34*
X889000Y165100D02*
X889000Y59200D01*
X889000Y165100D02*
X863600Y190500D01*
X1117600Y165100D02*
X1117600Y59200D01*
X1117600Y165100D02*
X1092200Y190500D01*
X977900Y190500D01*
X918700Y190500D02*
X910100Y190500D01*
D33*
X1016000Y914400D02*
X1041400Y939800D01*
X1016000Y914400D02*
X990600Y939800D01*
X800100Y939800D02*
X774700Y914400D01*
X800100Y939800D02*
X990600Y939800D01*
X774700Y914400D02*
X749300Y939800D01*
X558800Y939800D02*
X533400Y914400D01*
X558800Y939800D02*
X749300Y939800D01*
X533400Y914400D02*
X508000Y889000D01*
D31*
X774700Y914400D02*
X800100Y889000D01*
X1221350Y433950D02*
X1280550Y433950D01*
X1282700Y431800D01*
X1278400Y783100D02*
X1282700Y787400D01*
X1282700Y889000D02*
X1257300Y914400D01*
X1282700Y889000D02*
X1282700Y787400D01*
X825500Y437600D02*
X818600Y444500D01*
X783100Y444500D01*
X825500Y437600D02*
X869220Y437600D01*
X875020Y431800D01*
X875020Y406400D02*
X869220Y400600D01*
X825500Y400600D01*
X818600Y393700D01*
X783100Y393700D01*
X829800Y736600D02*
X875020Y736600D01*
X829800Y736600D02*
X800100Y766300D01*
X800100Y720950D01*
D34*
X279400Y830900D02*
X235900Y830900D01*
X203200Y863600D02*
X203200Y882142D01*
X203200Y863600D02*
X235900Y830900D01*
X279400Y723900D02*
X381000Y622300D01*
X279400Y723900D02*
X279400Y830900D01*
X381000Y622300D02*
X330200Y571500D01*
X330200Y495300D02*
X381000Y444500D01*
X330200Y495300D02*
X330200Y571500D01*
X381000Y444500D02*
X330200Y393700D01*
X330200Y317500D01*
X381000Y266700D01*
X330200Y215900D01*
X330200Y139700D02*
X381000Y88900D01*
X330200Y139700D02*
X330200Y215900D01*
X685800Y169400D02*
X685800Y145600D01*
X914400Y145600D02*
X914400Y169400D01*
X381000Y88900D02*
X330200Y38100D01*
X330200Y25400D01*
X342900Y12700D01*
X508000Y12700D01*
X520700Y12700D01*
X552900Y12700D01*
X685800Y145600D01*
D32*
X508000Y241300D02*
X485550Y218850D01*
X444500Y218850D01*
X420450Y218850D01*
X419100Y220200D01*
X405600Y206700D01*
X361000Y206700D01*
D35*
X239000Y206700D02*
X210100Y177800D01*
X88900Y177800D01*
X239000Y302500D02*
X239000Y326700D01*
X190500Y254000D02*
X88900Y254000D01*
X190500Y254000D02*
X239000Y302500D01*
D32*
X444500Y593950D02*
X444500Y645500D01*
X442300Y647700D01*
X508000Y596900D02*
X485550Y574450D01*
X444500Y574450D01*
X420450Y574450D01*
X419100Y575800D01*
X405600Y562300D01*
X361000Y562300D01*
X444500Y112100D02*
X444500Y60550D01*
X444500Y112100D02*
X442300Y114300D01*
X508000Y63500D02*
X485550Y41050D01*
X444500Y41050D01*
X420450Y41050D01*
X419100Y42400D01*
X405600Y28900D01*
X361000Y28900D01*
D35*
X239000Y28900D02*
X239000Y-2300D01*
X177800Y-63500D01*
X88900Y-63500D01*
X239000Y86600D02*
X239000Y148900D01*
X165100Y12700D02*
X88900Y12700D01*
X165100Y12700D02*
X239000Y86600D01*
D32*
X444500Y416150D02*
X444500Y469900D01*
X508000Y419100D02*
X485550Y396650D01*
X444500Y396650D01*
X420450Y396650D01*
X419100Y398000D01*
X405600Y384500D01*
X361000Y384500D01*
D35*
X239000Y562300D02*
X140900Y660400D01*
X88900Y660400D01*
X184700Y736600D02*
X239000Y682300D01*
X184700Y736600D02*
X88900Y736600D01*
X123500Y384500D02*
X239000Y384500D01*
X123500Y384500D02*
X88900Y419100D01*
X98100Y504500D02*
X239000Y504500D01*
X98100Y504500D02*
X88900Y495300D01*
X1041400Y57600D02*
X1041400Y25400D01*
X1041400Y12700D01*
X1079500Y-25400D01*
X965200Y12700D02*
X965200Y57600D01*
X965200Y12700D02*
X927100Y-25400D01*
X1062830Y-42070D02*
X1064765Y-44004D01*
X1302196Y-44004D02*
X1320800Y-25400D01*
X1302196Y-44004D02*
X1064765Y-44004D01*
X977900Y132900D02*
X965200Y145600D01*
X977900Y42861D02*
X1062830Y-42070D01*
X977900Y42861D02*
X977900Y132900D01*
X1041400Y145600D02*
X1054100Y132900D01*
X1054100Y38100D01*
X1117600Y-25400D01*
X1168400Y-25400D01*
X812800Y0D02*
X812800Y57600D01*
X812800Y0D02*
X838200Y-25400D01*
X736600Y25400D02*
X736600Y57600D01*
X736600Y25400D02*
X685800Y-25400D01*
X469900Y-50800D02*
X444500Y-25400D01*
X469900Y-50800D02*
X698500Y-50800D01*
X800100Y50800D01*
X800100Y132900D02*
X812800Y145600D01*
X800100Y132900D02*
X800100Y50800D01*
D34*
X596900Y5900D02*
X596900Y-25400D01*
X596900Y5900D02*
X736600Y145600D01*
D36*
X939800Y279400D03*
D31*
X914400Y355600D02*
X875020Y355600D01*
X914400Y355600D02*
X939800Y330200D01*
X939800Y279400D01*
X914400Y88900D02*
X914400Y57600D01*
X914400Y88900D02*
X952500Y127000D01*
D36*
X952500Y127000D03*
D31*
X939800Y88900D02*
X939800Y57600D01*
X939800Y88900D02*
X952500Y101600D01*
D36*
X952500Y101600D03*
D35*
X849620Y355600D02*
X875020Y381000D01*
X698500Y355600D02*
X622300Y279400D01*
X622300Y203200D01*
X698500Y355600D02*
X849620Y355600D01*
D36*
X622300Y203200D03*
D35*
X711200Y330200D02*
X875020Y330200D01*
X711200Y330200D02*
X647700Y266700D01*
X647700Y203200D01*
D36*
X647700Y203200D03*
D31*
X1029980Y736600D02*
X1282700Y736600D01*
X1282700Y711200D02*
X1029980Y711200D01*
X1029980Y685800D02*
X1282700Y685800D01*
X1282700Y660400D02*
X1029980Y660400D01*
D34*
X180958Y972058D02*
X148700Y939800D01*
X180958Y972058D02*
X203200Y972058D01*
D31*
X1029980Y533400D02*
X1062500Y533400D01*
X1066800Y529100D01*
X1220622Y464178D02*
X1227600Y457200D01*
X1220622Y464178D02*
X1220622Y464518D01*
X1156040Y529100D01*
X1066800Y529100D01*
X1232981Y762000D02*
X1231900Y766300D01*
X875020Y482600D02*
X870720Y478300D01*
X838200Y478300D01*
X800100Y701450D02*
X756256Y701450D01*
X743712Y713994D01*
X351400Y960900D02*
X342900Y952400D01*
X351400Y960900D02*
X393700Y960900D01*
X410700Y960900D01*
X457200Y914400D01*
X677418Y647700D02*
X743712Y713994D01*
X677418Y647700D02*
X508000Y647700D01*
X977900Y533400D02*
X1029980Y533400D01*
X927100Y482600D02*
X875020Y482600D01*
X927100Y482600D02*
X977900Y533400D01*
X838200Y663350D02*
X800100Y701450D01*
X838200Y663350D02*
X838200Y478300D01*
X520700Y127000D02*
X508000Y114300D01*
X520700Y279400D02*
X508000Y292100D01*
X520700Y279400D02*
X520700Y127000D01*
X508000Y292100D02*
X520700Y304800D01*
X520700Y457200D01*
X508000Y469900D01*
X520700Y482600D01*
X520700Y635000D01*
X508000Y647700D01*
D33*
X698500Y759206D02*
X743712Y713994D01*
X698500Y759206D02*
X698500Y914400D01*
D31*
X1214900Y766300D02*
X1231900Y766300D01*
X1181100Y800100D02*
X1181100Y914400D01*
X1181100Y800100D02*
X1214900Y766300D01*
X863600Y57600D02*
X863600Y50800D01*
X872000Y42400D01*
X889000Y42400D01*
X1100600Y42400D02*
X1117600Y42400D01*
X1100600Y42400D02*
X1092200Y50800D01*
X1092200Y57600D01*
X1117600Y42400D02*
X1172700Y42400D01*
X1231900Y101600D01*
X1231900Y402100D01*
X1227600Y406400D01*
X1282700Y406400D01*
X1282700Y457200D02*
X1227600Y457200D01*
X1282700Y406400D02*
X1295522Y419222D01*
X1295522Y444378D02*
X1282700Y457200D01*
X1295522Y444378D02*
X1295522Y419222D01*
X1282700Y762000D02*
X1236200Y762000D01*
X1231900Y766300D01*
X1282700Y762000D02*
X1358900Y762000D01*
X1308100Y482600D02*
X1282700Y457200D01*
X1308100Y482600D02*
X1308100Y495300D01*
X1333500Y520700D01*
X1358900Y520700D01*
X1282700Y406400D02*
X1358900Y330200D01*
X1358900Y279400D01*
M02*
