G04 EAGLE Gerber RS-274X export*
G75*
%MOMM*%
%FSLAX34Y34*%
%LPD*%
%IN*%
%IPPOS*%
%AMOC8*
5,1,8,0,0,1.08239X$1,22.5*%
G01*
%ADD10C,0.254000*%


D10*
X0Y-114300D02*
X1447600Y-114300D01*
X1447600Y1000000D01*
X0Y1000000D01*
X0Y-114300D01*
X103700Y887800D02*
X133700Y887800D01*
X133700Y895800D01*
X103700Y895800D01*
X103700Y887800D01*
X86700Y924800D02*
X94700Y924800D01*
X94700Y954800D01*
X86700Y954800D01*
X86700Y924800D01*
X144700Y924800D02*
X152700Y924800D01*
X152700Y954800D01*
X144700Y954800D01*
X144700Y924800D01*
X1411000Y37600D02*
X1410929Y36603D01*
X1410786Y35613D01*
X1410574Y34636D01*
X1410292Y33676D01*
X1409943Y32739D01*
X1409527Y31829D01*
X1409048Y30952D01*
X1408507Y30110D01*
X1407908Y29310D01*
X1407253Y28554D01*
X1406546Y27847D01*
X1405790Y27192D01*
X1404990Y26593D01*
X1404148Y26052D01*
X1403271Y25573D01*
X1402361Y25157D01*
X1401424Y24808D01*
X1400465Y24526D01*
X1399487Y24314D01*
X1398498Y24171D01*
X1397500Y24100D01*
X1396500Y24100D01*
X1395503Y24171D01*
X1394513Y24314D01*
X1393536Y24526D01*
X1392576Y24808D01*
X1391639Y25157D01*
X1390729Y25573D01*
X1389852Y26052D01*
X1389010Y26593D01*
X1388210Y27192D01*
X1387454Y27847D01*
X1386747Y28554D01*
X1386092Y29310D01*
X1385493Y30110D01*
X1384952Y30952D01*
X1384473Y31829D01*
X1384057Y32739D01*
X1383708Y33676D01*
X1383426Y34636D01*
X1383214Y35613D01*
X1383071Y36603D01*
X1383000Y37600D01*
X1383000Y38600D01*
X1383071Y39598D01*
X1383214Y40587D01*
X1383426Y41565D01*
X1383708Y42524D01*
X1384057Y43461D01*
X1384473Y44371D01*
X1384952Y45248D01*
X1385493Y46090D01*
X1386092Y46890D01*
X1386747Y47646D01*
X1387454Y48353D01*
X1388210Y49008D01*
X1389010Y49607D01*
X1389852Y50148D01*
X1390729Y50627D01*
X1391639Y51043D01*
X1392576Y51392D01*
X1393536Y51674D01*
X1394513Y51886D01*
X1395503Y52029D01*
X1396500Y52100D01*
X1397500Y52100D01*
X1398498Y52029D01*
X1399487Y51886D01*
X1400465Y51674D01*
X1401424Y51392D01*
X1402361Y51043D01*
X1403271Y50627D01*
X1404148Y50148D01*
X1404990Y49607D01*
X1405790Y49008D01*
X1406546Y48353D01*
X1407253Y47646D01*
X1407908Y46890D01*
X1408507Y46090D01*
X1409048Y45248D01*
X1409527Y44371D01*
X1409943Y43461D01*
X1410292Y42524D01*
X1410574Y41565D01*
X1410786Y40587D01*
X1410929Y39598D01*
X1411000Y38600D01*
X1411000Y37600D01*
X306100Y-51300D02*
X306029Y-52298D01*
X305886Y-53287D01*
X305674Y-54265D01*
X305392Y-55224D01*
X305043Y-56161D01*
X304627Y-57071D01*
X304148Y-57948D01*
X303607Y-58790D01*
X303008Y-59590D01*
X302353Y-60346D01*
X301646Y-61053D01*
X300890Y-61708D01*
X300090Y-62307D01*
X299248Y-62848D01*
X298371Y-63327D01*
X297461Y-63743D01*
X296524Y-64092D01*
X295565Y-64374D01*
X294587Y-64586D01*
X293598Y-64729D01*
X292600Y-64800D01*
X291600Y-64800D01*
X290603Y-64729D01*
X289613Y-64586D01*
X288636Y-64374D01*
X287676Y-64092D01*
X286739Y-63743D01*
X285829Y-63327D01*
X284952Y-62848D01*
X284110Y-62307D01*
X283310Y-61708D01*
X282554Y-61053D01*
X281847Y-60346D01*
X281192Y-59590D01*
X280593Y-58790D01*
X280052Y-57948D01*
X279573Y-57071D01*
X279157Y-56161D01*
X278808Y-55224D01*
X278526Y-54265D01*
X278314Y-53287D01*
X278171Y-52298D01*
X278100Y-51300D01*
X278100Y-50300D01*
X278171Y-49303D01*
X278314Y-48313D01*
X278526Y-47336D01*
X278808Y-46376D01*
X279157Y-45439D01*
X279573Y-44529D01*
X280052Y-43652D01*
X280593Y-42810D01*
X281192Y-42010D01*
X281847Y-41254D01*
X282554Y-40547D01*
X283310Y-39892D01*
X284110Y-39293D01*
X284952Y-38752D01*
X285829Y-38273D01*
X286739Y-37857D01*
X287676Y-37508D01*
X288636Y-37226D01*
X289613Y-37014D01*
X290603Y-36871D01*
X291600Y-36800D01*
X292600Y-36800D01*
X293598Y-36871D01*
X294587Y-37014D01*
X295565Y-37226D01*
X296524Y-37508D01*
X297461Y-37857D01*
X298371Y-38273D01*
X299248Y-38752D01*
X300090Y-39293D01*
X300890Y-39892D01*
X301646Y-40547D01*
X302353Y-41254D01*
X303008Y-42010D01*
X303607Y-42810D01*
X304148Y-43652D01*
X304627Y-44529D01*
X305043Y-45439D01*
X305392Y-46376D01*
X305674Y-47336D01*
X305886Y-48313D01*
X306029Y-49303D01*
X306100Y-50300D01*
X306100Y-51300D01*
X382300Y799600D02*
X382229Y798603D01*
X382086Y797613D01*
X381874Y796636D01*
X381592Y795676D01*
X381243Y794739D01*
X380827Y793829D01*
X380348Y792952D01*
X379807Y792110D01*
X379208Y791310D01*
X378553Y790554D01*
X377846Y789847D01*
X377090Y789192D01*
X376290Y788593D01*
X375448Y788052D01*
X374571Y787573D01*
X373661Y787157D01*
X372724Y786808D01*
X371765Y786526D01*
X370787Y786314D01*
X369798Y786171D01*
X368800Y786100D01*
X367800Y786100D01*
X366803Y786171D01*
X365813Y786314D01*
X364836Y786526D01*
X363876Y786808D01*
X362939Y787157D01*
X362029Y787573D01*
X361152Y788052D01*
X360310Y788593D01*
X359510Y789192D01*
X358754Y789847D01*
X358047Y790554D01*
X357392Y791310D01*
X356793Y792110D01*
X356252Y792952D01*
X355773Y793829D01*
X355357Y794739D01*
X355008Y795676D01*
X354726Y796636D01*
X354514Y797613D01*
X354371Y798603D01*
X354300Y799600D01*
X354300Y800600D01*
X354371Y801598D01*
X354514Y802587D01*
X354726Y803565D01*
X355008Y804524D01*
X355357Y805461D01*
X355773Y806371D01*
X356252Y807248D01*
X356793Y808090D01*
X357392Y808890D01*
X358047Y809646D01*
X358754Y810353D01*
X359510Y811008D01*
X360310Y811607D01*
X361152Y812148D01*
X362029Y812627D01*
X362939Y813043D01*
X363876Y813392D01*
X364836Y813674D01*
X365813Y813886D01*
X366803Y814029D01*
X367800Y814100D01*
X368800Y814100D01*
X369798Y814029D01*
X370787Y813886D01*
X371765Y813674D01*
X372724Y813392D01*
X373661Y813043D01*
X374571Y812627D01*
X375448Y812148D01*
X376290Y811607D01*
X377090Y811008D01*
X377846Y810353D01*
X378553Y809646D01*
X379208Y808890D01*
X379807Y808090D01*
X380348Y807248D01*
X380827Y806371D01*
X381243Y805461D01*
X381592Y804524D01*
X381874Y803565D01*
X382086Y802587D01*
X382229Y801598D01*
X382300Y800600D01*
X382300Y799600D01*
X1423700Y850400D02*
X1423629Y849403D01*
X1423486Y848413D01*
X1423274Y847436D01*
X1422992Y846476D01*
X1422643Y845539D01*
X1422227Y844629D01*
X1421748Y843752D01*
X1421207Y842910D01*
X1420608Y842110D01*
X1419953Y841354D01*
X1419246Y840647D01*
X1418490Y839992D01*
X1417690Y839393D01*
X1416848Y838852D01*
X1415971Y838373D01*
X1415061Y837957D01*
X1414124Y837608D01*
X1413165Y837326D01*
X1412187Y837114D01*
X1411198Y836971D01*
X1410200Y836900D01*
X1409200Y836900D01*
X1408203Y836971D01*
X1407213Y837114D01*
X1406236Y837326D01*
X1405276Y837608D01*
X1404339Y837957D01*
X1403429Y838373D01*
X1402552Y838852D01*
X1401710Y839393D01*
X1400910Y839992D01*
X1400154Y840647D01*
X1399447Y841354D01*
X1398792Y842110D01*
X1398193Y842910D01*
X1397652Y843752D01*
X1397173Y844629D01*
X1396757Y845539D01*
X1396408Y846476D01*
X1396126Y847436D01*
X1395914Y848413D01*
X1395771Y849403D01*
X1395700Y850400D01*
X1395700Y851400D01*
X1395771Y852398D01*
X1395914Y853387D01*
X1396126Y854365D01*
X1396408Y855324D01*
X1396757Y856261D01*
X1397173Y857171D01*
X1397652Y858048D01*
X1398193Y858890D01*
X1398792Y859690D01*
X1399447Y860446D01*
X1400154Y861153D01*
X1400910Y861808D01*
X1401710Y862407D01*
X1402552Y862948D01*
X1403429Y863427D01*
X1404339Y863843D01*
X1405276Y864192D01*
X1406236Y864474D01*
X1407213Y864686D01*
X1408203Y864829D01*
X1409200Y864900D01*
X1410200Y864900D01*
X1411198Y864829D01*
X1412187Y864686D01*
X1413165Y864474D01*
X1414124Y864192D01*
X1415061Y863843D01*
X1415971Y863427D01*
X1416848Y862948D01*
X1417690Y862407D01*
X1418490Y861808D01*
X1419246Y861153D01*
X1419953Y860446D01*
X1420608Y859690D01*
X1421207Y858890D01*
X1421748Y858048D01*
X1422227Y857171D01*
X1422643Y856261D01*
X1422992Y855324D01*
X1423274Y854365D01*
X1423486Y853387D01*
X1423629Y852398D01*
X1423700Y851400D01*
X1423700Y850400D01*
M02*
