G04 EAGLE Gerber RS-274X export*
G75*
%MOMM*%
%FSLAX34Y34*%
%LPD*%
%INSoldermask Bottom*%
%IPPOS*%
%AMOC8*
5,1,8,0,0,1.08239X$1,22.5*%
G01*
%ADD10R,1.561200X1.561200*%
%ADD11C,1.561200*%
%ADD12R,1.471200X1.471200*%
%ADD13C,1.471200*%
%ADD14R,2.258200X2.258200*%
%ADD15C,2.258200*%
%ADD16R,1.411200X1.411200*%
%ADD17C,1.411200*%
%ADD18C,2.003200*%
%ADD19C,2.213200*%
%ADD20C,1.511200*%
%ADD21P,1.649562X8X22.500000*%
%ADD22C,2.082800*%
%ADD23R,2.603200X2.603200*%
%ADD24C,2.603200*%
%ADD25C,1.853200*%
%ADD26C,0.959600*%


D10*
X279400Y977900D03*
D11*
X279400Y830900D03*
D12*
X875020Y736600D03*
D13*
X875020Y711200D03*
X875020Y685800D03*
X875020Y660400D03*
X875020Y635000D03*
X875020Y609600D03*
X875020Y584200D03*
X875020Y558800D03*
X875020Y533400D03*
X875020Y508000D03*
X875020Y482600D03*
X875020Y457200D03*
X875020Y431800D03*
X875020Y406400D03*
X875020Y381000D03*
X875020Y355600D03*
X875020Y330200D03*
X875020Y304800D03*
X875020Y279400D03*
X875020Y254000D03*
X1029980Y254000D03*
X1029980Y279400D03*
X1029980Y304800D03*
X1029980Y330200D03*
X1029980Y355600D03*
X1029980Y381000D03*
X1029980Y406400D03*
X1029980Y431800D03*
X1029980Y457200D03*
X1029980Y482600D03*
X1029980Y508000D03*
X1029980Y533400D03*
X1029980Y558800D03*
X1029980Y584200D03*
X1029980Y609600D03*
X1029980Y635000D03*
X1029980Y660400D03*
X1029980Y685800D03*
X1029980Y711200D03*
X1029980Y736600D03*
D14*
X342900Y901700D03*
D15*
X342900Y927050D03*
X342900Y952400D03*
D16*
X1092200Y145600D03*
D17*
X1066800Y145600D03*
X1041400Y145600D03*
X1016000Y145600D03*
X990600Y145600D03*
X965200Y145600D03*
X939800Y145600D03*
X914400Y145600D03*
X914400Y57600D03*
X939800Y57600D03*
X965200Y57600D03*
X990600Y57600D03*
X1016000Y57600D03*
X1041400Y57600D03*
X1066800Y57600D03*
X1092200Y57600D03*
D16*
X863600Y145600D03*
D17*
X838200Y145600D03*
X812800Y145600D03*
X787400Y145600D03*
X762000Y145600D03*
X736600Y145600D03*
X711200Y145600D03*
X685800Y145600D03*
X685800Y57600D03*
X711200Y57600D03*
X736600Y57600D03*
X762000Y57600D03*
X787400Y57600D03*
X812800Y57600D03*
X838200Y57600D03*
X863600Y57600D03*
D18*
X90700Y930800D02*
X90700Y948800D01*
X148700Y948800D02*
X148700Y930800D01*
X127700Y891800D02*
X109700Y891800D01*
D19*
X381000Y622300D03*
D20*
X361000Y562300D03*
X361000Y682300D03*
X239000Y562300D03*
X239000Y682300D03*
D19*
X381000Y88900D03*
D20*
X361000Y28900D03*
X361000Y148900D03*
X239000Y28900D03*
X239000Y148900D03*
D19*
X381000Y444500D03*
D20*
X361000Y384500D03*
X361000Y504500D03*
X239000Y384500D03*
X239000Y504500D03*
D19*
X381000Y266700D03*
D20*
X361000Y206700D03*
X361000Y326700D03*
X239000Y206700D03*
X239000Y326700D03*
D21*
X508000Y596900D03*
X533400Y622300D03*
X508000Y647700D03*
X508000Y63500D03*
X533400Y88900D03*
X508000Y114300D03*
X508000Y419100D03*
X533400Y444500D03*
X508000Y469900D03*
X508000Y241300D03*
X533400Y266700D03*
X508000Y292100D03*
D22*
X743712Y713994D03*
X678688Y713994D03*
X743712Y759206D03*
X678688Y759206D03*
D23*
X1320800Y-25400D03*
D24*
X1244600Y-25400D03*
X1168400Y-25400D03*
D23*
X1079500Y-25400D03*
D24*
X1003300Y-25400D03*
X927100Y-25400D03*
D23*
X596900Y-25400D03*
D24*
X520700Y-25400D03*
X444500Y-25400D03*
D23*
X838200Y-25400D03*
D24*
X762000Y-25400D03*
X685800Y-25400D03*
D23*
X939800Y914400D03*
D24*
X1016000Y914400D03*
X1092200Y914400D03*
D23*
X698500Y914400D03*
D24*
X774700Y914400D03*
X850900Y914400D03*
D23*
X1181100Y914400D03*
D24*
X1257300Y914400D03*
X1333500Y914400D03*
D23*
X457200Y914400D03*
D24*
X533400Y914400D03*
X609600Y914400D03*
D23*
X88900Y177800D03*
D24*
X88900Y254000D03*
X88900Y330200D03*
D23*
X88900Y-63500D03*
D24*
X88900Y12700D03*
X88900Y88900D03*
D23*
X88900Y419100D03*
D24*
X88900Y495300D03*
X88900Y571500D03*
D23*
X88900Y660400D03*
D24*
X88900Y736600D03*
X88900Y812800D03*
D23*
X1358900Y762000D03*
D24*
X1358900Y685800D03*
X1358900Y609600D03*
D23*
X1358900Y520700D03*
D24*
X1358900Y444500D03*
X1358900Y368300D03*
D23*
X1358900Y279400D03*
D24*
X1358900Y203200D03*
X1358900Y127000D03*
D25*
X1282700Y406400D03*
X1282700Y431800D03*
X1282700Y457200D03*
X1282700Y482600D03*
X1282700Y508000D03*
X1282700Y533400D03*
X1282700Y558800D03*
X1282700Y584200D03*
X1282700Y609600D03*
X1282700Y635000D03*
X1282700Y660400D03*
X1282700Y685800D03*
X1282700Y711200D03*
X1282700Y736600D03*
X1282700Y762000D03*
X1282700Y787400D03*
D26*
X939800Y279400D03*
X952500Y127000D03*
X952500Y101600D03*
X622300Y203200D03*
X647700Y203200D03*
M02*
