G04 EAGLE Gerber RS-274X export*
G75*
%MOMM*%
%FSLAX34Y34*%
%LPD*%
%INSoldermask Bottom*%
%IPPOS*%
%AMOC8*
5,1,8,0,0,1.08239X$1,22.5*%
G01*
%ADD10R,1.561200X1.561200*%
%ADD11C,1.561200*%
%ADD12R,1.471200X1.471200*%
%ADD13C,1.471200*%
%ADD14R,2.258200X2.258200*%
%ADD15C,2.258200*%
%ADD16R,1.411200X1.411200*%
%ADD17C,1.411200*%
%ADD18C,2.003200*%
%ADD19C,2.213200*%
%ADD20C,1.511200*%
%ADD21P,1.649562X8X22.500000*%
%ADD22C,2.082800*%
%ADD23R,2.603200X2.603200*%
%ADD24C,2.603200*%
%ADD25C,1.853200*%
%ADD26C,3.003200*%
%ADD27C,0.959600*%

G36*
X243092Y-99380D02*
X243092Y-99380D01*
X243135Y-99368D01*
X243201Y-99361D01*
X244884Y-98910D01*
X244925Y-98891D01*
X244988Y-98872D01*
X246568Y-98135D01*
X246605Y-98109D01*
X246664Y-98080D01*
X248092Y-97080D01*
X248123Y-97048D01*
X248176Y-97009D01*
X249409Y-95776D01*
X249434Y-95740D01*
X249480Y-95692D01*
X250480Y-94264D01*
X250498Y-94223D01*
X250535Y-94168D01*
X251272Y-92588D01*
X251283Y-92545D01*
X251310Y-92484D01*
X251761Y-90801D01*
X251763Y-90770D01*
X251770Y-90748D01*
X251770Y-90733D01*
X251780Y-90692D01*
X251932Y-88955D01*
X251928Y-88911D01*
X251932Y-88845D01*
X251780Y-87108D01*
X251768Y-87065D01*
X251761Y-86999D01*
X251310Y-85316D01*
X251291Y-85275D01*
X251272Y-85212D01*
X250535Y-83632D01*
X250509Y-83595D01*
X250480Y-83536D01*
X249480Y-82108D01*
X249448Y-82077D01*
X249409Y-82024D01*
X248176Y-80791D01*
X248140Y-80766D01*
X248092Y-80720D01*
X246664Y-79720D01*
X246623Y-79702D01*
X246568Y-79665D01*
X244988Y-78928D01*
X244945Y-78917D01*
X244884Y-78890D01*
X243201Y-78439D01*
X243156Y-78436D01*
X243092Y-78420D01*
X241355Y-78268D01*
X241311Y-78272D01*
X241245Y-78268D01*
X239508Y-78420D01*
X239465Y-78432D01*
X239399Y-78439D01*
X237716Y-78890D01*
X237675Y-78909D01*
X237612Y-78928D01*
X236032Y-79665D01*
X235995Y-79691D01*
X235936Y-79720D01*
X234508Y-80720D01*
X234477Y-80752D01*
X234424Y-80791D01*
X233191Y-82024D01*
X233166Y-82060D01*
X233120Y-82108D01*
X232120Y-83536D01*
X232102Y-83577D01*
X232065Y-83632D01*
X231328Y-85212D01*
X231317Y-85255D01*
X231290Y-85316D01*
X230839Y-86999D01*
X230836Y-87044D01*
X230820Y-87108D01*
X230668Y-88845D01*
X230672Y-88889D01*
X230668Y-88955D01*
X230820Y-90692D01*
X230832Y-90735D01*
X230836Y-90769D01*
X230836Y-90785D01*
X230838Y-90790D01*
X230839Y-90801D01*
X231290Y-92484D01*
X231309Y-92525D01*
X231328Y-92588D01*
X232065Y-94168D01*
X232091Y-94205D01*
X232120Y-94264D01*
X233120Y-95692D01*
X233152Y-95723D01*
X233191Y-95776D01*
X234424Y-97009D01*
X234460Y-97034D01*
X234508Y-97080D01*
X235936Y-98080D01*
X235977Y-98098D01*
X236032Y-98135D01*
X237612Y-98872D01*
X237655Y-98883D01*
X237716Y-98910D01*
X239399Y-99361D01*
X239444Y-99364D01*
X239508Y-99380D01*
X241245Y-99532D01*
X241289Y-99528D01*
X241355Y-99532D01*
X243092Y-99380D01*
G37*
D10*
X279400Y977900D03*
D11*
X279400Y830900D03*
D12*
X875020Y736600D03*
D13*
X875020Y711200D03*
X875020Y685800D03*
X875020Y660400D03*
X875020Y635000D03*
X875020Y609600D03*
X875020Y584200D03*
X875020Y558800D03*
X875020Y533400D03*
X875020Y508000D03*
X875020Y482600D03*
X875020Y457200D03*
X875020Y431800D03*
X875020Y406400D03*
X875020Y381000D03*
X875020Y355600D03*
X875020Y330200D03*
X875020Y304800D03*
X875020Y279400D03*
X875020Y254000D03*
X1029980Y254000D03*
X1029980Y279400D03*
X1029980Y304800D03*
X1029980Y330200D03*
X1029980Y355600D03*
X1029980Y381000D03*
X1029980Y406400D03*
X1029980Y431800D03*
X1029980Y457200D03*
X1029980Y482600D03*
X1029980Y508000D03*
X1029980Y533400D03*
X1029980Y558800D03*
X1029980Y584200D03*
X1029980Y609600D03*
X1029980Y635000D03*
X1029980Y660400D03*
X1029980Y685800D03*
X1029980Y711200D03*
X1029980Y736600D03*
D14*
X342900Y901700D03*
D15*
X342900Y927050D03*
X342900Y952400D03*
D16*
X1092200Y145600D03*
D17*
X1066800Y145600D03*
X1041400Y145600D03*
X1016000Y145600D03*
X990600Y145600D03*
X965200Y145600D03*
X939800Y145600D03*
X914400Y145600D03*
X914400Y57600D03*
X939800Y57600D03*
X965200Y57600D03*
X990600Y57600D03*
X1016000Y57600D03*
X1041400Y57600D03*
X1066800Y57600D03*
X1092200Y57600D03*
D16*
X863600Y145600D03*
D17*
X838200Y145600D03*
X812800Y145600D03*
X787400Y145600D03*
X762000Y145600D03*
X736600Y145600D03*
X711200Y145600D03*
X685800Y145600D03*
X685800Y57600D03*
X711200Y57600D03*
X736600Y57600D03*
X762000Y57600D03*
X787400Y57600D03*
X812800Y57600D03*
X838200Y57600D03*
X863600Y57600D03*
D18*
X90700Y930800D02*
X90700Y948800D01*
X148700Y948800D02*
X148700Y930800D01*
X127700Y891800D02*
X109700Y891800D01*
D19*
X381000Y622300D03*
D20*
X361000Y562300D03*
X361000Y682300D03*
X239000Y562300D03*
X239000Y682300D03*
D19*
X381000Y88900D03*
D20*
X361000Y28900D03*
X361000Y148900D03*
X239000Y28900D03*
X239000Y148900D03*
D19*
X381000Y444500D03*
D20*
X361000Y384500D03*
X361000Y504500D03*
X239000Y384500D03*
X239000Y504500D03*
D19*
X381000Y266700D03*
D20*
X361000Y206700D03*
X361000Y326700D03*
X239000Y206700D03*
X239000Y326700D03*
D21*
X508000Y596900D03*
X533400Y622300D03*
X508000Y647700D03*
X508000Y63500D03*
X533400Y88900D03*
X508000Y114300D03*
X508000Y419100D03*
X533400Y444500D03*
X508000Y469900D03*
X508000Y241300D03*
X533400Y266700D03*
X508000Y292100D03*
D22*
X743712Y713994D03*
X678688Y713994D03*
X743712Y759206D03*
X678688Y759206D03*
D23*
X1320800Y-25400D03*
D24*
X1244600Y-25400D03*
X1168400Y-25400D03*
D23*
X1079500Y-25400D03*
D24*
X1003300Y-25400D03*
X927100Y-25400D03*
D23*
X596900Y-25400D03*
D24*
X520700Y-25400D03*
X444500Y-25400D03*
D23*
X838200Y-25400D03*
D24*
X762000Y-25400D03*
X685800Y-25400D03*
D23*
X939800Y914400D03*
D24*
X1016000Y914400D03*
X1092200Y914400D03*
D23*
X698500Y914400D03*
D24*
X774700Y914400D03*
X850900Y914400D03*
D23*
X1181100Y914400D03*
D24*
X1257300Y914400D03*
X1333500Y914400D03*
D23*
X457200Y914400D03*
D24*
X533400Y914400D03*
X609600Y914400D03*
D23*
X88900Y177800D03*
D24*
X88900Y254000D03*
X88900Y330200D03*
D23*
X88900Y-63500D03*
D24*
X88900Y12700D03*
X88900Y88900D03*
D23*
X88900Y419100D03*
D24*
X88900Y495300D03*
X88900Y571500D03*
D23*
X88900Y660400D03*
D24*
X88900Y736600D03*
X88900Y812800D03*
D23*
X1358900Y762000D03*
D24*
X1358900Y685800D03*
X1358900Y609600D03*
D23*
X1358900Y520700D03*
D24*
X1358900Y444500D03*
X1358900Y368300D03*
D23*
X1358900Y279400D03*
D24*
X1358900Y203200D03*
X1358900Y127000D03*
D25*
X1282700Y406400D03*
X1282700Y431800D03*
X1282700Y457200D03*
X1282700Y482600D03*
X1282700Y508000D03*
X1282700Y533400D03*
X1282700Y558800D03*
X1282700Y584200D03*
X1282700Y609600D03*
X1282700Y635000D03*
X1282700Y660400D03*
X1282700Y685800D03*
X1282700Y711200D03*
X1282700Y736600D03*
X1282700Y762000D03*
X1282700Y787400D03*
D26*
X1397000Y38100D03*
X292100Y-50800D03*
X368300Y800100D03*
X1409700Y850900D03*
D27*
X939800Y279400D03*
X952500Y127000D03*
X952500Y101600D03*
X622300Y203200D03*
X647700Y203200D03*
M02*
